<?xml version="1.0" standalone="no"?>
<!DOCTYPE svg PUBLIC "-//W3C//DTD SVG 20010904//EN"
 "http://www.w3.org/TR/2001/REC-SVG-20010904/DTD/svg10.dtd">
<svg version="1.0" xmlns="http://www.w3.org/2000/svg"
 width="600.000000pt" height="600.000000pt" viewBox="0 0 600.000000 600.000000"
 preserveAspectRatio="xMidYMid meet">

<g transform="translate(0.000000,600.000000) scale(0.100000,-0.100000)"
fill="#000000" stroke="none">
<path d="M0 4669 l0 -1331 28 18 c15 10 101 65 192 122 183 115 185 116 176
130 -4 7 -31 -3 -69 -25 -90 -51 -225 -117 -202 -98 11 9 73 48 138 87 89 53
117 74 114 87 -3 9 -26 65 -51 125 -25 61 -44 112 -42 114 3 2 30 -48 62 -112
34 -68 64 -116 72 -116 8 0 29 9 48 20 l33 21 -31 72 c-83 198 -171 428 -165
433 2 2 57 -103 123 -233 65 -131 120 -240 121 -242 1 -2 27 9 56 24 53 28 55
31 128 174 84 165 90 170 157 121 23 -16 44 -30 47 -30 3 0 2 24 -1 53 -13
108 41 209 128 239 19 7 28 17 28 32 0 24 28 65 85 127 36 39 62 48 82 28 8
-8 20 1 44 30 37 47 70 53 104 21 l22 -21 5 66 c7 75 44 162 86 197 19 16 54
28 106 37 70 13 84 12 131 -3 103 -32 194 -144 210 -258 14 -94 -43 -216 -126
-274 -35 -24 -53 -29 -108 -31 -36 -1 -65 -4 -64 -7 2 -4 10 -17 19 -30 20
-32 10 -51 -56 -106 -39 -32 -49 -47 -44 -62 8 -27 -19 -53 -93 -91 -38 -19
-63 -37 -63 -47 0 -9 -13 -37 -29 -62 -31 -48 -95 -88 -144 -88 -27 0 -36 -13
-17 -25 28 -17 5 -60 -106 -200 -64 -80 -122 -145 -130 -145 -10 0 -14 -15
-14 -58 0 -32 -7 -79 -15 -104 -15 -44 -89 -131 -130 -154 -20 -11 -20 -11 2
-70 11 -32 24 -68 28 -79 4 -11 -15 20 -43 69 l-49 89 -119 68 c-65 38 -136
72 -157 76 -59 9 -70 26 -63 97 3 34 8 77 12 97 4 25 1 47 -10 68 l-17 32
-212 -110 -212 -110 -3 -1661 -2 -1660 1978 0 c1088 0 2438 3 3000 7 l1022 6
0 2197 0 2196 -52 -50 c-207 -195 -542 -124 -666 141 -24 52 -27 69 -26 163 1
110 18 176 65 242 34 48 13 50 -72 8 -43 -22 -79 -38 -79 -36 0 2 20 17 44 32
25 16 40 31 35 35 -6 3 6 16 26 29 26 16 34 27 30 39 -4 9 -8 30 -11 46 -4 29
-3 28 14 -7 9 -21 23 -38 30 -38 15 0 11 16 -25 103 -37 90 -22 89 22 -1 38
-75 42 -80 70 -77 16 1 58 18 92 38 56 32 116 58 103 44 -3 -3 -30 -21 -60
-41 -58 -38 -60 -45 -6 -22 128 53 313 9 420 -101 l46 -47 0 542 0 542 -597 2
c-329 2 -1679 4 -3000 6 l-2403 2 0 -1331z m3214 625 c11 -11 16 -35 16 -79 0
-50 4 -67 18 -77 10 -7 27 -26 37 -41 10 -15 20 -25 24 -22 3 4 20 54 36 112
18 64 37 110 47 117 19 12 119 -11 194 -43 l41 -18 23 -142 c14 -77 27 -141
31 -141 10 0 19 56 19 121 0 82 20 94 150 94 86 0 100 -3 142 -28 87 -51 121
-120 95 -196 l-16 -44 37 36 c47 44 84 63 153 75 59 11 131 2 137 -18 2 -6 24
-30 49 -53 73 -68 88 -106 87 -215 l-1 -94 81 81 c106 105 111 105 200 4 78
-91 77 -84 22 -251 -18 -57 -30 -102 -26 -100 4 2 31 31 59 66 74 88 85 92
161 51 76 -40 141 -101 166 -154 20 -42 26 -132 11 -172 -8 -21 -6 -22 41 -16
95 11 232 -63 232 -125 0 -15 6 -39 14 -53 62 -119 -15 -307 -153 -371 -25
-12 -73 -23 -106 -26 -53 -3 -68 0 -125 30 -80 41 -124 96 -140 175 -12 53
-10 109 4 143 6 13 -4 16 -61 16 -50 0 -80 6 -114 22 -53 26 -147 115 -161
154 -5 15 -34 45 -64 68 -34 25 -54 48 -54 61 0 11 -8 22 -17 25 -10 3 -57 24
-106 47 -87 42 -104 59 -92 96 5 16 -2 19 -63 23 -104 8 -180 64 -217 162 -16
42 -19 44 -39 31 -25 -15 -114 -35 -159 -35 -41 1 -104 29 -148 67 -28 25 -47
32 -102 37 -37 4 -74 14 -82 22 -12 13 -27 13 -91 5 -103 -15 -150 -14 -167 4
-14 13 -21 12 -69 -10 -82 -38 -176 -32 -263 19 -24 15 -47 27 -51 26 -3 0 -7
-21 -8 -46 -2 -44 -22 -74 -49 -74 -5 0 -37 27 -71 60 -35 33 -65 60 -68 60
-2 0 -3 -14 0 -30 7 -46 -13 -62 -72 -58 -49 3 -51 2 -54 -25 -4 -35 -19 -41
-178 -68 -109 -18 -128 -19 -140 -7 -28 27 -181 455 -172 479 8 20 245 142
263 135 13 -5 45 -49 59 -81 3 -5 10 -2 16 7 5 9 44 38 85 63 72 45 76 47 99
31 24 -15 28 -13 118 39 100 59 118 64 142 39 13 -13 16 -45 16 -190 0 -96 3
-174 8 -174 4 0 17 25 29 55 21 54 21 55 2 92 -24 47 -24 67 1 119 37 76 132
122 257 123 43 1 66 -4 77 -15z m-1980 -304 c7 -7 5 -10 -9 -9 -61 6 -108 -26
-120 -82 -4 -16 -11 -29 -16 -29 -5 0 -9 -8 -9 -17 0 -15 -2 -16 -10 -3 -25
39 10 131 57 149 32 12 91 7 107 -9z m63 -87 c9 -72 -43 -133 -114 -133 -50 0
-60 17 -14 25 44 7 91 51 91 85 0 10 5 22 10 25 15 9 12 36 -7 59 -17 21 -17
21 6 0 13 -12 25 -37 28 -61z m-453 -42 c3 -4 -5 -7 -18 -6 -33 4 -65 -21 -82
-61 -15 -35 -34 -46 -34 -20 0 25 20 71 37 84 19 14 89 16 97 3z m32 -126
c-17 -26 -69 -45 -101 -36 -16 4 -13 6 12 12 40 8 60 24 69 52 3 12 12 28 18
36 18 24 20 -36 2 -64z m2132 -275 c37 -23 69 -71 78 -117 6 -33 7 -33 64 -33
56 0 58 1 63 30 15 71 80 120 162 120 57 0 96 -19 131 -65 26 -34 30 -80 11
-125 -5 -12 17 -23 102 -51 l109 -37 26 48 c14 26 26 50 26 52 0 3 -14 5 -31
5 -68 0 -78 66 -20 124 50 51 73 50 180 -5 48 -24 103 -49 124 -56 20 -6 42
-21 48 -32 17 -31 6 -122 -16 -144 -18 -19 -17 -19 36 -24 64 -7 107 -28 143
-70 31 -38 39 -66 34 -120 -3 -33 -1 -39 12 -34 34 16 88 15 119 0 17 -9 31
-21 31 -25 0 -5 14 -22 30 -38 23 -21 30 -37 30 -64 0 -42 -32 -89 -61 -89
-10 0 -19 -2 -19 -4 0 -2 -3 -11 -6 -20 -10 -25 31 -20 48 6 32 48 132 11 179
-66 23 -38 33 -87 25 -121 -6 -25 -12 -31 -65 -72 l-23 -19 31 -63 c174 -344
216 -791 111 -1180 -70 -258 -207 -505 -399 -721 -39 -43 -40 -46 -22 -61 53
-45 67 -148 30 -222 -55 -107 -135 -173 -199 -164 -35 4 -40 2 -50 -23 -13
-32 -73 -100 -88 -100 -5 0 -20 8 -33 18 -19 17 -22 28 -21 84 0 35 6 84 11
109 18 76 9 80 -37 15 -46 -64 -123 -100 -200 -94 -35 4 -70 0 -92 -8 -129
-49 -355 -84 -541 -84 -214 0 -401 33 -601 106 l-77 29 -46 -23 c-108 -52
-198 1 -181 107 7 48 -9 57 -49 31 -16 -11 -45 -22 -65 -25 -29 -5 -45 -17
-74 -55 -55 -72 -133 -102 -156 -60 -13 24 -4 68 48 221 39 117 42 139 16 139
-8 0 -20 11 -26 25 -6 14 -16 25 -21 25 -6 0 -34 -18 -62 -39 -73 -55 -176
-106 -270 -133 -64 -18 -105 -22 -200 -22 -144 0 -214 17 -340 78 -200 98
-362 300 -411 511 -23 98 -14 313 16 405 24 73 89 199 125 242 21 24 23 32 13
53 -6 14 -16 25 -21 25 -5 0 -68 -30 -140 -66 -71 -36 -127 -61 -123 -56 3 5
60 42 126 82 66 40 120 77 120 81 0 14 -10 11 -67 -21 -76 -43 -79 -37 -5 10
34 22 62 42 62 44 0 3 -9 25 -20 51 -24 55 -26 72 -4 30 38 -71 42 -75 69 -63
14 6 25 15 25 19 0 4 -25 69 -55 145 -30 76 -53 139 -51 141 2 2 34 -57 71
-132 38 -74 70 -135 72 -135 3 0 14 5 26 11 19 9 18 7 -3 -10 -57 -46 -2 -27
152 54 91 47 168 85 173 85 9 0 -111 -79 -228 -150 -48 -28 -87 -58 -87 -66 0
-17 8 -13 56 23 47 35 192 99 269 118 39 9 111 18 160 20 l90 3 7 49 c34 220
87 391 174 565 l34 67 -44 30 c-34 24 -51 29 -74 25 -20 -4 -34 -1 -45 11 -23
22 -21 46 6 86 12 19 39 61 59 94 54 89 88 118 139 118 35 0 48 -6 71 -32 22
-25 36 -31 67 -31 51 0 60 15 26 42 -24 19 -27 26 -22 65 7 60 46 116 102 143
55 27 97 22 136 -16 27 -26 49 -25 49 1 0 8 -11 17 -24 21 -31 7 -48 43 -32
70 28 51 71 94 102 106 19 6 34 16 34 20 0 17 66 48 101 48 38 0 65 -19 106
-75 19 -27 23 -28 37 -15 13 13 12 22 -4 72 -11 35 -28 66 -46 81 -25 22 -27
28 -19 52 6 16 32 41 67 62 73 45 102 41 118 -17 12 -45 16 -47 42 -24 23 21
90 22 121 1 13 -8 30 -29 37 -46 15 -37 30 -40 30 -7 0 97 174 173 268 116z
m2192 -2169 c0 -4 30 -6 68 -4 58 4 71 2 102 -19 90 -61 89 -183 -3 -238 -114
-70 -254 69 -192 190 14 27 14 29 -2 23 -17 -6 -17 -5 0 15 11 11 16 26 12 31
-3 6 -1 11 4 11 6 0 11 -4 11 -9z m-332 -371 c4 0 27 11 51 25 53 30 64 32 31
3 -20 -17 -21 -20 -5 -13 11 4 52 10 92 13 61 3 80 0 125 -20 118 -54 174
-150 166 -283 -8 -118 -73 -205 -182 -241 -63 -21 -166 -15 -221 14 -54 27
-118 97 -139 150 -32 85 -10 232 44 290 26 28 21 28 -43 -3 -41 -20 -47 -22
-30 -7 12 11 20 22 17 25 -3 3 4 8 16 12 16 5 20 13 16 27 -4 16 -2 18 7 9 23
-23 26 -10 7 35 -28 64 -25 67 10 12 17 -27 33 -48 38 -48z m666 -10 c46 -17
52 -90 10 -127 -34 -31 -75 -29 -109 4 -24 24 -26 33 -21 71 3 24 8 48 12 53
7 12 76 12 108 -1z m-4365 -776 c-26 -11 -42 -27 -54 -55 -23 -51 -42 -37 -25
18 16 47 24 53 75 52 l40 0 -36 -15z m547 -39 c157 -103 113 -338 -72 -384
-68 -17 -142 6 -199 64 -75 74 -84 173 -26 266 30 48 30 50 9 44 -23 -6 -23
-6 -3 10 11 8 25 13 32 11 7 -3 13 -2 13 3 0 13 93 29 145 25 35 -4 66 -15
101 -39z m-460 -48 c-10 -41 -44 -67 -84 -66 l-37 1 35 12 c21 7 41 24 50 42
27 52 33 59 38 46 2 -7 1 -23 -2 -35z m2244 -262 c17 -9 30 -21 30 -27 0 -6
-8 -4 -18 5 -39 36 -90 17 -117 -43 -12 -26 -22 -37 -28 -31 -14 14 11 99 32
104 35 10 73 6 101 -8z m29 -122 c-16 -29 -78 -50 -105 -35 -17 10 -16 11 9
12 29 0 77 39 77 63 0 7 6 19 13 26 17 18 23 -35 6 -66z m421 47 c16 0 72 -53
81 -78 14 -37 0 -89 -33 -122 -40 -41 -112 -43 -157 -4 -42 35 -57 94 -37 136
9 17 16 37 16 44 0 7 17 16 38 19 20 4 42 8 47 10 6 2 16 2 23 -1 8 -2 17 -4
22 -4z"/>
<path d="M3017 5276 c-58 -16 -114 -67 -123 -112 -4 -21 1 -44 15 -72 24 -48
48 -66 113 -88 53 -17 68 -31 44 -40 -27 -10 -84 6 -116 33 -17 14 -32 24 -34
22 -2 -2 -17 -39 -33 -83 -35 -91 -31 -118 24 -167 39 -33 89 -49 161 -49 64
0 116 20 160 62 24 25 32 28 32 15 0 -9 4 -17 10 -17 5 0 9 -10 7 -22 -2 -22
1 -23 53 -20 111 7 123 12 139 65 16 53 31 62 31 19 0 -16 7 -43 16 -60 16
-33 32 -39 121 -46 33 -2 48 -10 65 -31 67 -85 231 -86 303 -2 l35 41 0 -35
c0 -41 48 -146 81 -176 74 -68 215 -70 294 -5 11 9 -2 -7 -29 -35 -39 -41 -47
-55 -38 -66 8 -9 8 -17 1 -24 -6 -6 20 -23 80 -50 l89 -41 23 24 c26 28 36 25
19 -6 -18 -33 4 -80 56 -119 25 -19 54 -51 64 -71 26 -50 110 -125 166 -146
39 -15 56 -16 107 -7 34 6 63 10 64 9 1 -1 -4 -24 -12 -51 -20 -64 -19 -84 6
-151 41 -110 141 -181 241 -172 100 10 198 104 221 213 10 49 9 62 -7 103 -10
26 -20 60 -23 76 -7 33 -52 80 -105 107 -41 21 -127 25 -160 8 -28 -15 -32 -6
-14 30 22 41 20 123 -3 169 -25 49 -126 143 -179 166 -23 11 -44 17 -45 15 -2
-2 -39 -47 -83 -99 -44 -52 -90 -108 -103 -125 -13 -16 -22 -23 -19 -14 32 88
108 341 108 356 0 11 -30 53 -66 94 -37 41 -68 75 -69 76 -2 3 -102 -90 -197
-184 l-66 -66 26 53 c19 40 27 72 30 135 6 104 -7 132 -99 219 -65 63 -71 66
-116 66 -88 -1 -186 -67 -214 -144 l-13 -35 -22 32 -22 32 20 22 c13 14 23 41
25 70 4 44 2 52 -31 90 -60 69 -91 83 -189 84 -47 0 -91 -2 -96 -6 -6 -3 -11
-25 -11 -48 0 -44 -47 -276 -59 -289 -4 -4 -21 82 -40 192 -27 168 -36 205
-55 225 -13 14 -28 25 -33 25 -6 0 -39 9 -74 20 -34 11 -66 17 -70 13 -3 -5
-28 -84 -53 -178 -26 -93 -49 -174 -51 -180 -2 -5 -4 10 -4 35 -2 54 -28 116
-65 149 -23 22 -26 32 -26 88 0 47 -3 63 -14 63 -8 0 -16 7 -20 15 -7 19 -81
19 -149 1z m470 -278 c-3 -7 -5 -2 -5 12 0 14 2 19 5 13 2 -7 2 -19 0 -25z
m404 -41 c-8 -8 -11 -7 -11 4 0 20 13 34 18 19 3 -7 -1 -17 -7 -23z m-16 -147
c-3 -5 -11 -10 -16 -10 -6 0 -7 5 -4 10 3 6 11 10 16 10 6 0 7 -4 4 -10z m425
-98 c0 -28 -32 -80 -52 -86 -30 -7 -38 1 -38 40 0 47 42 89 71 71 10 -6 19
-18 19 -25z m350 -232 c0 -5 -5 -10 -11 -10 -5 0 -7 5 -4 10 3 6 8 10 11 10 2
0 4 -4 4 -10z m342 -237 c-13 -23 -51 -58 -57 -52 -2 3 10 22 27 42 33 38 47
43 30 10z m266 -385 c2 -19 -4 -31 -26 -47 -62 -43 -104 -21 -67 35 31 48 88
56 93 12z"/>
<path d="M2692 5232 l-73 -44 6 -42 c3 -22 8 -54 11 -71 6 -34 6 -35 -61 59
-22 31 -46 56 -54 56 -27 0 -111 -71 -111 -93 0 -12 11 -85 25 -162 22 -132
26 -176 9 -123 -9 30 -45 67 -60 61 -6 -2 -17 9 -23 25 -7 17 -23 40 -36 52
-19 18 -27 20 -43 11 -25 -13 -32 -14 -32 -3 0 5 22 20 50 33 36 18 49 30 50
46 0 12 -4 24 -9 28 -5 3 -12 18 -16 34 -3 16 -17 37 -31 46 -24 16 -28 14
-122 -34 -113 -58 -111 -53 -63 -177 17 -43 52 -137 79 -209 l49 -130 39 1
c44 0 213 30 222 38 3 3 0 23 -6 43 -6 20 -10 38 -8 40 2 2 33 -3 70 -11 51
-11 69 -11 72 -2 3 7 -2 45 -11 85 -8 40 -15 76 -15 80 0 5 46 -38 102 -95 55
-57 104 -102 107 -100 12 8 1 576 -11 576 -6 0 -16 6 -22 13 -9 11 -25 6 -84
-31z"/>
<path d="M2883 4450 c-68 -16 -123 -76 -123 -133 0 -44 29 -96 63 -114 67 -34
182 1 221 68 56 96 -44 208 -161 179z m32 -80 c24 -26 33 -110 13 -110 -19 0
-60 92 -52 114 8 21 17 20 39 -4z"/>
<path d="M2415 4423 c-64 -34 -86 -75 -46 -86 25 -6 73 -158 69 -214 -3 -36
-1 -38 29 -41 39 -4 123 31 123 51 0 8 -7 20 -14 27 -19 15 -50 106 -41 120
22 36 64 -16 74 -92 6 -53 7 -53 40 -51 74 3 144 58 97 76 -7 3 -26 38 -41 77
-32 83 -57 106 -111 96 -25 -5 -41 -16 -52 -37 -9 -16 -20 -29 -24 -29 -4 0
-15 27 -24 60 -18 66 -27 71 -79 43z"/>
<path d="M3313 4421 c-50 -23 -73 -63 -73 -127 0 -62 44 -109 113 -119 57 -9
122 18 122 50 0 18 -6 20 -45 17 -36 -3 -50 1 -64 17 -27 30 -15 35 52 24 32
-5 64 -7 70 -5 18 6 14 70 -5 103 -16 28 -76 59 -111 59 -9 0 -36 -9 -59 -19z
m92 -60 c0 -8 -4 -16 -10 -18 -16 -5 -38 14 -30 26 9 16 40 9 40 -8z"/>
<path d="M3776 4415 c-36 -19 -55 -44 -56 -72 0 -31 16 -37 61 -23 22 7 42 11
45 8 6 -7 -46 -116 -77 -159 -11 -16 -26 -29 -32 -28 -27 3 -37 -2 -37 -20 0
-33 115 -101 171 -101 l31 0 -6 44 c-6 38 -2 54 31 120 20 42 43 76 49 76 7 0
15 -16 18 -35 5 -26 13 -36 32 -41 30 -8 41 2 52 42 17 60 5 73 -128 141 -69
34 -125 63 -125 63 0 0 -13 -7 -29 -15z"/>
<path d="M2220 4233 c-26 -10 -60 -46 -60 -65 0 -21 -11 -23 -29 -5 -10 10
-21 2 -57 -37 -47 -51 -53 -79 -18 -84 23 -3 63 -67 74 -116 8 -38 32 -38 89
0 55 36 57 50 17 94 -19 21 -39 47 -45 58 -14 26 -4 54 17 50 21 -4 70 -76 74
-108 2 -16 10 -26 23 -28 22 -3 102 50 111 73 3 8 -11 31 -33 53 -21 22 -54
58 -74 81 -34 39 -54 47 -89 34z"/>
<path d="M3920 4149 c-17 -32 -19 -44 -9 -55 17 -21 34 -17 72 18 l34 32 -34
23 c-19 13 -36 23 -38 23 -3 0 -14 -18 -25 -41z"/>
<path d="M4054 4123 c-12 -2 -36 -17 -55 -32 -32 -27 -34 -33 -34 -89 0 -51 4
-65 25 -87 75 -80 205 -82 245 -4 18 34 19 95 2 129 -26 52 -121 95 -183 83z
m91 -83 c10 -16 -37 -105 -57 -108 -24 -5 -23 28 2 78 20 39 42 51 55 30z"/>
<path d="M1894 3990 c-52 -21 -104 -122 -83 -161 21 -41 59 -14 59 43 0 31 4
38 19 38 37 0 41 -23 10 -64 -36 -49 -38 -96 -7 -126 12 -11 33 -20 46 -20 27
0 92 59 92 84 0 9 8 16 20 16 34 0 62 36 58 78 -2 30 -7 37 -25 38 -13 1 -43
20 -68 43 -45 42 -75 50 -121 31z m90 -166 c4 -9 4 -19 2 -22 -10 -9 -36 8
-36 23 0 20 26 19 34 -1z"/>
<path d="M4310 3902 c-34 -17 -35 -18 -36 -82 -1 -38 -6 -66 -13 -68 -7 -2
-11 12 -11 42 0 39 -3 46 -20 46 -19 0 -50 -44 -50 -71 0 -21 72 -101 103
-114 66 -28 115 19 103 99 -9 60 -9 60 3 64 6 2 11 -8 11 -21 0 -72 53 -80 74
-11 4 14 -1 29 -19 48 -14 15 -25 31 -25 35 0 10 -37 36 -65 44 -11 4 -35 -1
-55 -11z"/>
<path d="M3589 3874 c20 -25 20 -51 0 -38 -6 3 -8 -4 -5 -18 3 -12 8 -40 11
-60 7 -45 18 -47 67 -13 49 33 67 64 44 77 -9 5 -16 16 -16 23 0 19 9 19 29 1
14 -12 18 -11 32 8 17 22 16 22 -16 24 -19 2 -40 -4 -48 -13 -9 -8 -18 -11
-22 -6 -3 5 0 13 7 17 15 10 -21 22 -70 23 l-33 1 20 -26z"/>
<path d="M3922 3813 c-27 -61 -72 -123 -88 -123 -8 0 -17 -7 -20 -15 -4 -8
-12 -15 -20 -15 -8 0 -19 -8 -25 -18 -9 -14 -21 -17 -54 -15 -50 4 -65 -15
-34 -43 10 -9 19 -21 19 -26 0 -17 -51 -89 -68 -95 -9 -4 -30 -17 -46 -30 -15
-13 -44 -30 -64 -39 -33 -14 -150 -92 -213 -143 -17 -13 -28 -30 -25 -37 3 -8
1 -14 -4 -14 -5 0 -7 -7 -4 -15 4 -10 15 -12 37 -8 29 6 31 5 18 -10 -14 -17
-10 -21 23 -17 25 2 11 -19 -22 -32 -15 -6 -44 -14 -64 -18 -40 -8 -41 -7 -39
45 1 34 -7 21 -25 -45 -10 -37 -12 -40 -13 -17 -1 17 -5 26 -11 22 -6 -4 -10
-21 -10 -38 1 -18 0 -39 -2 -47 -1 -8 1 -37 5 -63 7 -43 11 -48 29 -44 23 7
61 -15 98 -56 22 -24 36 -29 105 -36 77 -8 189 -42 200 -62 10 -16 61 -10 78
9 21 23 22 39 2 39 -10 0 -13 -6 -9 -19 3 -10 1 -18 -5 -18 -14 0 -32 35 -36
70 -2 16 -13 47 -24 70 -11 22 -23 54 -26 70 -6 26 -4 30 14 30 12 0 21 4 21
9 0 10 138 79 250 125 36 15 76 37 90 49 30 27 99 130 103 154 2 10 11 33 20
51 10 18 16 36 13 40 -5 9 10 84 24 117 15 37 19 69 10 80 -6 7 -11 26 -13 44
-2 17 -15 43 -28 57 -24 27 -134 104 -148 104 -3 0 -12 -12 -19 -27z m-103
-208 c13 -20 21 -39 17 -42 -9 -9 -27 18 -20 29 3 4 -2 8 -10 8 -9 0 -16 -5
-16 -11 0 -5 -5 -7 -11 -3 -8 5 -8 8 0 14 7 3 9 14 5 23 -11 29 10 18 35 -18z
m51 20 c0 -8 -7 -15 -15 -15 -8 0 -15 7 -15 15 0 8 7 15 15 15 8 0 15 -7 15
-15z"/>
<path d="M2865 3791 c-66 -26 -105 -46 -185 -94 -44 -26 -48 -33 -42 -63 5
-26 -15 -33 -36 -12 -30 30 -227 -158 -346 -331 -110 -158 -230 -471 -181
-471 8 0 15 6 15 13 0 8 3 7 10 -3 7 -12 10 -11 16 5 4 10 16 27 25 36 20 20
92 59 109 59 6 0 36 11 66 25 30 14 59 25 64 25 5 0 19 -18 30 -40 25 -49 119
-143 159 -160 24 -10 31 -19 31 -41 0 -27 32 -57 53 -51 4 1 5 -12 2 -30 -15
-86 -22 -164 -16 -170 11 -12 107 18 158 49 39 24 51 38 64 76 8 25 23 55 32
65 9 10 17 23 17 29 0 12 109 113 122 113 4 0 8 8 8 18 0 10 5 23 10 28 7 7 3
22 -14 46 -13 19 -29 51 -35 71 -7 19 -19 41 -27 47 -7 7 -14 19 -14 27 0 7
-7 16 -15 19 -8 4 -15 17 -15 29 0 15 -15 36 -41 59 -38 32 -45 35 -88 29 -25
-3 -53 -9 -62 -14 -12 -6 -26 2 -55 34 l-39 41 -5 -26 -5 -26 -48 23 c-54 27
-138 94 -167 135 l-19 27 39 0 c22 0 46 5 53 11 7 6 47 17 88 23 41 6 84 15
97 20 40 15 72 10 96 -16 29 -31 46 -32 46 -2 0 35 25 62 71 77 33 11 43 12
47 2 5 -15 22 -16 22 -1 0 5 -14 15 -30 21 -40 13 -47 45 -22 94 l20 38 -22
11 c-29 14 -34 61 -8 69 11 4 24 6 28 5 26 -4 35 2 29 21 -5 17 -2 20 22 20
18 0 33 -8 41 -20 7 -12 17 -18 22 -15 14 9 12 49 -2 63 -20 20 -99 12 -173
-17z m-368 -617 c-3 -3 -12 -4 -19 -1 -8 3 -5 6 6 6 11 1 17 -2 13 -5z m299
-40 c15 -10 22 -20 15 -22 -17 -6 -111 28 -111 40 0 15 63 3 96 -18z m87 -11
c-2 -7 4 -10 12 -7 8 4 15 1 15 -5 0 -17 -26 -13 -51 9 l-24 21 25 -3 c14 -2
24 -9 23 -15z m-108 -43 c-3 -5 -14 -10 -23 -10 -15 0 -15 2 -2 10 20 13 33
13 25 0z m154 -25 c3 -17 2 -17 -13 -3 -19 20 -21 31 -3 26 6 -3 14 -13 16
-23z m-134 -15 c3 -5 -3 -10 -14 -10 -11 0 -23 5 -26 10 -3 6 3 10 14 10 11 0
23 -4 26 -10z m-79 -35 c-9 -14 -21 -23 -27 -19 -6 3 -1 15 13 28 29 28 36 24
14 -9z m-34 -31 c7 -6 -20 -63 -39 -82 -11 -11 -13 -11 -13 2 0 22 22 66 32
66 5 0 6 5 3 10 -6 10 8 14 17 4z m16 -114 c1 -16 -2 -30 -8 -30 -5 0 -10 -7
-10 -15 0 -8 -4 -15 -10 -15 -8 0 -6 41 6 78 7 23 20 12 22 -18z"/>
<path d="M1588 3777 c-14 -12 -45 -53 -69 -92 -23 -38 -48 -77 -56 -86 -15
-18 -17 -55 -3 -64 5 -3 18 -1 29 4 16 9 32 2 93 -39 101 -69 106 -73 118
-104 20 -53 42 -30 150 150 41 70 41 124 0 166 -31 31 -64 35 -112 13 -13 -5
-18 -3 -18 9 0 27 -46 66 -77 66 -15 0 -40 -10 -55 -23z m52 -115 c23 -19 21
-42 -4 -42 -20 0 -67 40 -61 51 10 15 41 10 65 -9z m128 -68 c25 -17 29 -42 8
-50 -18 -7 -76 25 -76 41 0 29 34 33 68 9z"/>
<path d="M4492 3681 c-31 -19 0 -57 60 -75 20 -6 14 -31 -9 -40 -10 -4 -29 8
-53 34 -34 36 -43 41 -76 38 -76 -6 -93 -77 -33 -138 16 -15 29 -38 29 -50 0
-31 44 -70 80 -70 23 0 30 4 30 19 0 12 15 28 38 42 62 37 82 60 82 93 -1 76
-102 177 -148 147z m-12 -145 c0 -18 -30 -30 -43 -17 -5 5 -6 14 -3 20 10 16
46 13 46 -3z"/>
<path d="M4290 3484 c0 -5 7 -18 15 -28 8 -11 15 -16 15 -10 0 5 -7 18 -15 28
-8 11 -15 16 -15 10z"/>
<path d="M2866 3411 c-16 -17 -15 -19 6 -24 13 -4 29 -1 37 7 11 12 10 16 -7
25 -15 8 -23 6 -36 -8z"/>
<path d="M4250 3368 c0 -6 -3 -9 -6 -5 -3 3 -14 -2 -24 -11 -27 -24 -42 -35
-75 -52 -35 -18 -46 -68 -21 -89 8 -7 12 -19 9 -27 -8 -20 21 -18 59 6 43 26
59 25 92 -5 21 -20 31 -23 46 -15 28 15 33 -2 19 -69 -12 -64 -26 -77 -63 -59
-20 8 -30 7 -53 -10 -31 -22 -101 -44 -115 -36 -13 8 -10 37 7 61 8 12 14 32
14 45 -1 12 2 31 6 41 4 9 5 17 3 17 -14 0 -68 -33 -68 -41 0 -22 -69 -66 -79
-52 -3 5 -22 16 -41 25 -41 20 -55 12 -64 -36 -6 -30 -11 -34 -47 -40 -22 -3
-49 -12 -60 -19 -16 -10 -21 -9 -28 2 -11 17 -45 7 -38 -12 2 -6 16 -12 30
-12 29 1 32 -2 17 -25 -6 -10 -10 -11 -10 -2 0 6 -9 12 -20 12 -11 0 -20 5
-20 10 0 6 -11 10 -25 10 -23 0 -24 -2 -15 -21 7 -12 20 -20 33 -19 36 3 40 1
27 -15 -17 -21 -5 -45 22 -45 13 0 56 9 95 20 73 20 153 24 153 8 0 -5 -7 -20
-16 -33 -20 -30 -5 -55 32 -55 14 0 34 -6 47 -12 12 -7 23 -14 25 -15 2 0 -7
-13 -19 -27 -12 -14 -45 -32 -73 -40 -28 -8 -60 -22 -71 -30 -20 -15 -20 -15
2 -16 41 0 178 33 195 48 9 7 21 12 26 9 4 -3 26 28 48 69 36 71 58 97 113
134 12 8 34 24 47 35 31 25 101 54 132 54 13 1 22 7 22 16 0 26 -49 147 -100
249 -38 75 -60 96 -53 49 4 -22 2 -25 -6 -13 -9 12 -11 11 -11 -7 0 -13 -4
-23 -10 -23 -5 0 -10 5 -10 10 0 20 -29 9 -52 -19 -34 -40 -64 -48 -71 -19 -5
17 3 30 34 58 22 19 37 39 33 43 -11 11 -24 8 -24 -5z"/>
<path d="M3228 3283 c-9 -10 -18 -25 -21 -33 -4 -11 -6 -11 -6 3 -1 25 -26 16
-26 -9 0 -10 6 -18 13 -16 7 1 12 -8 12 -20 0 -16 3 -19 9 -10 4 7 12 12 18
10 5 -2 22 11 36 28 25 30 26 32 8 48 -22 20 -24 20 -43 -1z"/>
<path d="M3175 3130 c-3 -5 -1 -10 4 -10 6 0 11 5 11 10 0 6 -2 10 -4 10 -3 0
-8 -4 -11 -10z"/>
<path d="M3645 3010 c-3 -5 1 -10 9 -10 9 0 16 5 16 10 0 6 -4 10 -9 10 -6 0
-13 -4 -16 -10z"/>
<path d="M3935 2830 c-3 -5 1 -10 9 -10 9 0 16 5 16 10 0 6 -4 10 -9 10 -6 0
-13 -4 -16 -10z"/>
<path d="M3780 2685 c-10 -12 -10 -19 -2 -27 13 -13 42 6 42 28 0 19 -24 18
-40 -1z"/>
<path d="M3195 2650 c-156 -33 -220 -96 -216 -213 2 -66 25 -127 46 -127 9 0
18 -7 22 -16 3 -8 12 -13 19 -10 10 4 14 -3 14 -20 0 -14 4 -22 10 -19 6 3 10
-1 10 -9 0 -8 -10 -20 -21 -27 -19 -10 -21 -9 -17 8 4 16 1 19 -20 15 -16 -3
-28 1 -34 12 -8 14 -14 12 -48 -15 -22 -18 -44 -28 -50 -24 -16 10 -2 -34 16
-53 8 -7 14 -16 14 -20 0 -4 -16 10 -35 30 -27 29 -35 34 -35 19 0 -10 8 -29
19 -42 18 -23 23 -48 36 -194 3 -38 13 -77 21 -86 8 -8 14 -22 14 -31 0 -8 13
-34 30 -56 30 -42 30 -42 7 -46 -12 -2 -35 -4 -52 -3 -21 2 -30 -3 -33 -16 -3
-16 1 -17 31 -12 36 7 62 -10 33 -21 -21 -8 -20 -24 2 -24 13 0 10 -4 -10 -18
-14 -9 -36 -29 -47 -44 -17 -21 -18 -28 -7 -37 7 -6 16 -24 19 -39 3 -15 13
-36 21 -47 16 -20 16 -19 43 12 33 38 93 64 148 65 50 1 111 -34 119 -67 9
-36 44 -32 102 10 50 36 60 41 150 80 46 20 74 42 200 156 41 37 144 164 144
177 0 5 -21 8 -47 8 -58 1 -117 28 -109 51 4 9 0 25 -8 37 -7 12 -17 51 -20
86 -4 36 -16 84 -27 107 -10 24 -19 51 -19 61 0 27 -25 56 -43 49 -25 -9 -82
13 -93 37 -5 11 -16 20 -25 18 -21 -3 -32 58 -19 113 17 73 13 100 -22 135
-60 59 -125 73 -233 50z m102 -46 c42 -11 12 -24 -55 -24 -63 0 -65 1 -42 14
28 15 63 19 97 10z m-259 -531 c19 -38 30 -48 54 -44 4 0 15 -14 24 -32 31
-60 86 -119 130 -138 24 -10 44 -23 44 -29 0 -13 -37 -13 -45 1 -4 6 -13 8
-20 5 -11 -4 -75 51 -75 66 0 11 -85 95 -103 101 -9 4 -22 19 -28 34 -5 16
-18 44 -28 63 -9 19 -18 51 -19 70 l-2 35 24 -45 c13 -25 33 -64 44 -87z m63
76 c-9 -23 -10 -23 -10 -2 -1 12 2 30 6 40 6 15 8 15 11 2 1 -8 -2 -26 -7 -40z
m48 -114 c0 -11 -3 -14 -6 -7 -2 6 -11 12 -19 12 -15 0 -20 51 -7 64 9 9 32
-41 32 -69z m321 5 c0 -6 -5 -20 -12 -33 -6 -12 -14 -29 -18 -37 -6 -14 -60
-28 -60 -16 0 3 10 16 23 29 12 13 29 33 37 45 15 23 30 29 30 12z m-210 -93
c0 -5 -4 -5 -10 -2 -5 3 -10 14 -10 23 0 15 2 15 10 2 5 -8 10 -19 10 -23z
m-260 -78 c14 -26 -1 -31 -20 -6 -9 12 -17 40 -18 62 l-1 40 15 -40 c9 -22 19
-47 24 -56z"/>
<path d="M714 2636 c-10 -8 -16 -17 -12 -21 8 -8 48 13 48 25 0 14 -13 12 -36
-4z"/>
<path d="M738 2589 c-20 -11 -22 -27 -8 -49 8 -12 13 -11 34 9 37 35 17 66
-26 40z"/>
<path d="M1300 2574 c-130 -35 -285 -140 -341 -230 -20 -33 -21 -40 -9 -73 22
-61 22 -67 0 -28 -11 20 -25 37 -30 37 -6 0 -10 -1 -10 -2 0 -2 -13 -35 -29
-73 -15 -39 -38 -113 -50 -165 -13 -51 -29 -106 -37 -121 -17 -34 -69 -75
-107 -84 -15 -4 -30 -11 -33 -16 -7 -11 56 -147 94 -201 30 -43 83 -101 134
-147 35 -31 129 -50 250 -51 122 0 210 20 315 71 84 42 213 148 213 176 0 8
-14 35 -31 59 -46 67 -123 235 -163 354 -45 134 -74 279 -82 408 -5 64 -11
102 -18 101 -6 0 -36 -7 -66 -15z"/>
<path d="M4098 2485 c-5 -5 -60 -21 -173 -51 -73 -18 -105 -34 -105 -50 0 -6
-7 -14 -15 -18 -8 -3 -15 -17 -15 -31 0 -18 -5 -25 -20 -25 -15 0 -20 -7 -20
-29 0 -38 -13 -46 -35 -21 -10 11 -27 20 -37 20 -17 0 -19 -5 -13 -32 4 -18
13 -44 20 -58 16 -31 45 -144 45 -173 1 -52 13 -51 131 14 125 68 142 83 160
138 6 20 15 41 19 46 13 17 69 188 76 233 6 38 -2 53 -18 37z"/>
<path d="M2794 2134 c3 -9 6 -22 6 -30 0 -16 18 -18 40 -4 13 9 12 13 -9 30
-28 24 -45 26 -37 4z"/>
<path d="M2736 2120 c-23 -24 -99 -50 -124 -43 -11 2 -78 -7 -150 -21 -71 -14
-149 -26 -171 -26 -46 0 -179 -34 -195 -50 -12 -12 -6 -13 46 -10 32 1 40 -3
49 -24 9 -19 20 -26 43 -27 30 -1 30 -1 6 -8 -14 -4 -37 -3 -52 1 -16 6 -44 6
-70 0 -32 -7 -36 -10 -16 -11 15 -1 30 -5 33 -11 3 -5 39 -10 78 -10 50 0 67
-3 57 -10 -8 -5 -29 -10 -46 -10 -17 0 -52 -11 -78 -25 -26 -14 -55 -25 -65
-25 -19 0 -31 -18 -31 -46 0 -19 42 -18 88 3 89 39 106 43 197 37 l90 -5 38
45 c39 47 36 61 -10 50 l-28 -6 30 21 c32 22 50 27 40 11 -4 -6 3 -6 21 0 42
16 47 22 33 31 -12 8 -11 11 3 19 11 7 15 21 14 44 -3 30 0 35 23 39 14 3 27
5 27 4 1 -1 4 -12 8 -23 5 -16 2 -23 -13 -27 -19 -5 -19 -7 -6 -51 19 -62 24
-69 40 -56 7 5 23 9 36 8 20 -3 24 2 30 37 3 22 18 71 32 109 36 91 34 107 -7
66z m-278 -134 c-8 -19 -23 -28 -60 -35 -61 -14 -88 -14 -88 -1 0 6 8 10 19
10 10 0 25 7 32 16 17 21 46 33 81 33 26 1 27 -1 16 -23z m-153 -5 c-14 -13
-93 -26 -80 -13 11 11 38 19 70 21 12 1 15 -3 10 -8z m45 -101 c-20 -13 -33
-13 -25 0 3 6 14 10 23 10 15 0 15 -2 2 -10z"/>
<path d="M1735 1940 c-7 -12 -7 -12 23 -15 13 -1 22 3 22 11 0 16 -36 19 -45
4z"/>
<path d="M2725 1825 c10 -73 15 -89 27 -77 20 20 13 81 -11 105 l-22 22 6 -50z"/>
<path d="M2070 1838 c0 -19 2 -20 10 -8 13 19 13 30 0 30 -5 0 -10 -10 -10
-22z"/>
<path d="M2586 1791 c-4 -6 -12 -8 -18 -5 -8 5 -9 -6 -5 -33 9 -56 0 -95 -30
-127 -20 -22 -32 -26 -69 -25 -51 3 -61 -3 -40 -24 11 -11 12 -17 4 -19 -6 -2
-9 -12 -5 -21 8 -22 60 -23 78 -1 12 14 14 14 24 0 15 -20 86 -24 112 -5 57
41 83 69 83 92 0 14 -6 27 -12 30 -7 2 -20 26 -28 53 l-15 49 -3 -40 c-6 -90
-25 -83 -51 20 -10 38 -21 63 -25 56z"/>
<path d="M2292 1771 c-7 -4 -24 -6 -37 -4 -12 3 -33 -1 -46 -8 -13 -7 -57 -18
-98 -24 -47 -7 -77 -16 -81 -25 -4 -8 -15 -29 -24 -47 -9 -17 -16 -36 -16 -42
0 -16 34 -14 93 7 l52 17 -40 3 c-22 2 -44 8 -50 14 -13 13 91 3 109 -11 14
-11 60 5 51 19 -3 5 4 12 17 14 13 3 35 7 49 10 42 9 44 -8 2 -21 -36 -11 -35
-12 35 -10 l74 2 18 52 c10 29 15 54 12 56 -15 8 -108 6 -120 -2z"/>
<path d="M2322 1537 c-33 -19 -15 -29 19 -11 16 8 29 17 29 19 0 9 -25 4 -48
-8z"/>
<path d="M1968 1517 c-37 -12 -88 -66 -88 -94 0 -8 12 -13 30 -13 17 0 30 -1
30 -2 0 -2 -22 -68 -49 -148 -73 -219 -74 -249 -11 -235 34 7 105 73 115 106
4 12 16 19 33 19 54 1 109 36 156 99 70 95 82 160 40 220 -38 54 -163 77 -256
48z m122 -199 c0 -48 -3 -55 -35 -81 -19 -15 -33 -22 -31 -15 3 7 12 38 21 68
9 30 18 61 20 68 10 31 25 7 25 -40z"/>
<path d="M3075 1518 c-66 -23 -136 -114 -137 -178 0 -32 7 -50 30 -80 l31 -38
-27 -11 c-15 -6 -40 -27 -56 -47 -36 -45 -29 -74 25 -113 78 -57 147 -53 210
12 22 22 48 55 56 72 23 44 21 109 -5 145 -12 16 -22 32 -22 35 0 3 16 28 35
56 37 53 43 92 21 121 -27 36 -100 47 -161 26z m55 -148 c0 -13 -1 -13 -10 0
-5 8 -10 22 -10 30 0 13 1 13 10 0 5 -8 10 -22 10 -30z m-64 -222 c12 -22 12
-29 3 -26 -7 2 -19 19 -26 37 -17 40 1 32 23 -11z"/>
<path d="M3406 1477 c-80 -83 -154 -245 -163 -362 -9 -112 37 -124 125 -35 27
28 52 50 56 50 3 0 6 -15 6 -34 0 -19 8 -44 19 -57 16 -21 23 -22 56 -14 21 6
43 19 49 30 18 32 29 35 51 15 26 -25 87 -50 121 -50 59 0 109 24 161 78 60
61 78 105 70 170 -6 51 -46 97 -77 89 -10 -2 -23 -1 -30 3 -8 5 -3 10 14 14
43 11 29 26 -24 26 -31 0 -66 -8 -89 -20 -48 -24 -137 -124 -152 -170 -21 -66
-30 -57 -27 30 l3 85 -27 0 c-32 -1 -35 7 -13 29 9 8 23 32 31 52 20 48 10 90
-26 109 -52 27 -77 19 -134 -38z m39 -134 c-24 -62 -28 -49 -8 23 10 33 19 51
21 40 2 -10 -4 -38 -13 -63z m345 -43 l-25 -19 23 -24 c28 -30 42 -84 31 -115
-10 -28 -33 -28 -60 -1 -42 42 -11 179 40 179 12 0 9 -6 -9 -20z m-350 -45 c0
-2 -7 -5 -15 -9 -9 -3 -15 0 -15 9 0 9 6 12 15 9 8 -4 15 -7 15 -9z"/>
<path d="M2373 1505 c-41 -14 -50 -23 -31 -30 17 -7 85 30 71 37 -4 2 -22 -1
-40 -7z"/>
<path d="M2613 1484 c-18 -20 -42 -53 -53 -73 -10 -20 -30 -49 -43 -65 l-24
-29 -11 31 c-12 36 -43 48 -100 37 -28 -5 -51 -21 -95 -67 -68 -71 -94 -117
-103 -186 -6 -48 -4 -53 24 -82 21 -21 40 -30 63 -30 47 0 117 37 166 88 l43
44 0 -39 c0 -100 108 -114 179 -24 l33 41 -25 9 c-13 5 -27 17 -31 27 -11 29
4 103 23 109 9 3 27 24 40 47 l24 42 -23 18 c-24 19 -24 19 -6 68 10 27 15 54
11 60 -14 22 -58 10 -92 -26z m-267 -281 c-18 -34 -20 -13 -4 42 11 37 12 38
16 13 2 -15 -4 -40 -12 -55z m149 13 c-5 -27 -12 -36 -27 -36 -11 0 -29 -5
-40 -11 -25 -13 -22 -7 21 54 39 52 56 50 46 -7z"/>
<path d="M4191 1358 c-17 -18 -32 -37 -32 -43 -1 -5 -4 6 -8 25 -5 27 -11 36
-30 38 -58 9 -133 -145 -161 -326 -21 -133 9 -191 67 -129 16 18 36 48 43 67
7 19 14 36 15 38 2 1 14 -3 28 -9 96 -44 248 151 223 286 -16 84 -91 111 -145
53z m-4 -174 c-7 -66 -19 -84 -45 -67 -21 14 -18 46 9 90 31 50 43 42 36 -23z"/>
<path d="M4151 1177 c-14 -35 -14 -47 -1 -47 12 0 24 44 17 62 -3 8 -9 1 -16
-15z"/>
<path d="M5249 2219 c-16 -17 -29 -36 -29 -41 0 -6 -7 -25 -16 -44 -16 -34
-16 -36 6 -59 37 -39 100 -31 142 19 9 12 17 27 18 34 0 8 7 29 16 48 16 32
15 36 -1 54 -13 14 -31 20 -63 20 -36 0 -49 -5 -73 -31z"/>
<path d="M4998 1855 c-46 -24 -93 -76 -81 -89 3 -3 2 -6 -4 -6 -12 0 -27 -34
-43 -97 -6 -24 -14 -43 -18 -43 -5 0 -16 -6 -26 -13 -18 -13 -17 -15 2 -53 42
-81 103 -111 194 -94 102 20 165 81 194 186 11 44 26 72 42 85 l25 19 -19 36
c-10 20 -34 49 -52 65 -29 26 -40 29 -100 29 -51 -1 -78 -7 -114 -25z"/>
<path d="M5488 1890 c-27 -16 -59 -67 -52 -84 6 -17 50 -21 72 -8 19 13 34 73
21 89 -13 15 -18 16 -41 3z"/>
<path d="M1560 1068 c-51 -26 -86 -72 -102 -136 -7 -29 -18 -46 -30 -50 -24
-6 -23 -27 3 -68 30 -49 57 -64 112 -64 94 0 162 54 191 152 9 30 24 58 36 66
19 12 20 13 3 40 -41 66 -64 82 -118 82 -33 0 -66 -8 -95 -22z"/>
<path d="M3900 679 c-27 -10 -60 -56 -60 -83 0 -8 -7 -19 -17 -24 -15 -9 -14
-12 6 -41 17 -23 30 -31 53 -31 53 0 108 47 108 92 0 6 7 19 15 28 14 15 13
19 -9 43 -26 28 -52 32 -96 16z"/>
<path d="M5355 4960 c-3 -5 -1 -10 4 -10 6 0 11 5 11 10 0 6 -2 10 -4 10 -3 0
-8 -4 -11 -10z"/>
<path d="M5665 4949 c-4 -6 -4 -13 0 -17 3 -3 9 -1 13 5 5 7 22 10 45 7 21 -2
37 0 37 6 0 13 -87 13 -95 -1z"/>
<path d="M5568 4912 c-25 -15 -59 -42 -73 -60 -24 -29 -26 -36 -16 -58 14 -31
14 -44 1 -44 -5 0 -10 6 -10 14 0 8 -5 18 -10 21 -13 8 -36 -47 -51 -117 -11
-54 -38 -93 -71 -104 -23 -7 -23 -20 3 -69 30 -58 98 -124 139 -135 55 -16
121 -12 191 11 107 34 164 84 209 183 23 52 37 146 21 146 -15 0 -30 -66 -25
-108 l4 -37 -9 33 c-5 19 -14 39 -20 45 -6 6 -10 29 -10 52 1 22 4 30 6 18 5
-25 23 -32 23 -9 0 28 -20 67 -31 61 -5 -4 -24 7 -40 24 -30 32 -49 33 -49 5
0 -8 4 -13 9 -10 5 3 12 -6 16 -21 4 -17 2 -29 -4 -31 -15 -5 -14 -59 2 -65 7
-2 8 -8 3 -13 -5 -5 -11 -3 -14 6 -3 8 -18 27 -33 41 -26 24 -29 33 -31 108
-2 56 -7 81 -15 81 -8 0 -13 -15 -13 -40 0 -33 -3 -40 -20 -40 -17 0 -20 7
-20 39 0 29 5 41 18 44 16 4 16 5 0 6 -21 1 -24 21 -6 39 22 22 -24 12 -74
-16z m17 -12 c3 -5 1 -10 -4 -10 -6 0 -11 5 -11 10 0 6 2 10 4 10 3 0 8 -4 11
-10z m259 -272 c2 -7 8 -28 14 -45 5 -18 6 -33 2 -33 -5 0 -10 -6 -13 -12 -2
-7 -3 -5 -2 5 2 13 -4 17 -26 17 -25 0 -29 4 -29 28 0 21 2 24 10 12 8 -12 10
-9 10 13 0 28 27 40 34 15z m56 2 c0 -5 -4 -10 -10 -10 -5 0 -10 5 -10 10 0 6
5 10 10 10 6 0 10 -4 10 -10z m-124 -57 c-10 -10 -19 5 -10 18 6 11 8 11 12 0
2 -7 1 -15 -2 -18z m-9 -95 c-3 -8 -6 -5 -6 6 -1 11 2 17 5 13 3 -3 4 -12 1
-19z"/>
<path d="M5940 4859 c7 -11 14 -19 16 -16 7 7 -7 37 -17 37 -6 0 -5 -9 1 -21z"/>
<path d="M5810 4840 c0 -19 3 -21 12 -12 9 9 9 15 0 24 -9 9 -12 7 -12 -12z"/>
<path d="M1602 4810 c-19 -12 -42 -18 -51 -15 -35 11 -91 -97 -91 -177 0 -72
52 -189 109 -249 112 -116 268 -93 338 49 21 44 27 70 27 121 0 80 -21 125
-92 198 -87 90 -171 115 -240 73z m163 -250 c15 -17 16 -24 5 -50 -11 -26 -18
-30 -50 -30 -39 0 -50 11 -50 52 0 44 63 63 95 28z"/>
<path d="M5963 4816 c-9 -11 -9 -15 0 -19 7 -3 14 3 14 14 2 22 2 22 -14 5z"/>
<path d="M5970 4769 c0 -5 5 -7 10 -4 6 3 10 8 10 11 0 2 -4 4 -10 4 -5 0 -10
-5 -10 -11z"/>
<path d="M5930 4751 c-17 -33 -11 -45 10 -18 22 28 25 37 10 37 -5 0 -14 -9
-20 -19z"/>
<path d="M1311 4523 c-17 -21 -31 -44 -31 -51 0 -19 18 -51 58 -99 19 -24 30
-43 25 -43 -6 0 -39 36 -74 80 -35 44 -69 80 -76 80 -6 0 -30 -22 -52 -49 -41
-49 -42 -50 -27 -83 7 -18 59 -87 115 -153 55 -65 99 -120 97 -122 -1 -1 -29
9 -62 22 -78 32 -84 32 -84 -9 0 -63 -65 -92 -88 -41 -21 45 -15 65 18 72 17
3 29 8 28 12 -2 3 -14 37 -28 74 -14 37 -29 67 -34 67 -5 0 -14 7 -20 15 -10
13 -15 13 -43 -5 -18 -10 -42 -38 -54 -62 -72 -141 76 -409 231 -418 89 -5
101 -1 146 44 39 39 44 49 45 92 1 27 1 52 0 57 -2 13 11 7 25 -10 12 -17 16
-16 66 11 29 16 57 32 61 36 5 4 -17 36 -47 70 -30 35 -52 68 -49 73 6 9 72
-60 73 -75 1 -21 40 -2 88 40 l53 48 -156 179 c-86 99 -160 181 -164 183 -5 2
-23 -14 -40 -35z"/>
<path d="M729 3898 c-48 -100 -77 -168 -73 -178 4 -8 7 -18 6 -22 -1 -6 102
-88 111 -88 3 0 10 14 17 30 7 17 17 30 22 30 6 0 28 -14 49 -31 33 -26 37
-33 28 -51 -16 -30 3 -66 62 -117 28 -24 52 -42 53 -40 174 213 218 274 209
288 -5 9 -43 43 -82 75 l-73 59 -25 -31 c-13 -18 -28 -32 -31 -32 -4 0 -25 16
-47 35 l-40 34 24 45 c22 39 23 46 10 62 -20 24 -116 94 -129 94 -6 0 -47 -73
-91 -162z"/>
<path d="M595 3740 c-30 -20 -39 -40 -19 -47 11 -4 64 44 64 58 0 14 -12 11
-45 -11z"/>
<path d="M460 3658 c-19 -12 -37 -23 -39 -25 -3 -2 0 -8 6 -14 13 -13 97 36
88 51 -9 14 -15 12 -55 -12z"/>
<path d="M615 3645 c-19 -15 -18 -15 15 -13 19 2 34 8 33 13 -3 17 -27 17 -48
0z"/>
<path d="M580 3594 c-65 -40 -117 -167 -106 -257 6 -52 17 -67 50 -67 11 0 81
-34 157 -75 75 -41 142 -75 149 -75 22 0 82 55 102 95 25 49 34 145 19 203
-16 59 -96 142 -137 142 -16 0 -39 -7 -50 -15 -20 -13 -24 -12 -58 25 -41 45
-81 52 -126 24z m90 -180 c0 -9 -7 -14 -17 -12 -25 5 -28 28 -4 28 12 0 21 -6
21 -16z m126 -71 c-10 -10 -19 5 -10 18 6 11 8 11 12 0 2 -7 1 -15 -2 -18z"/>
<path d="M493 3578 c-36 -22 -39 -29 -22 -59 10 -19 12 -18 36 18 14 21 29 40
34 41 14 5 11 22 -3 21 -7 0 -28 -10 -45 -21z"/>
</g>
</svg>
